<?xml version="1.0" encoding="UTF-8"?>
<!DOCTYPE svg PUBLIC "-//W3C//DTD SVG 1.1//EN" "http://www.w3.org/Graphics/SVG/1.1/DTD/svg11.dtd">
<svg xmlns="http://www.w3.org/2000/svg" version="1.1" width="248px" height="248px" style="shape-rendering:geometricPrecision; text-rendering:geometricPrecision; image-rendering:optimizeQuality; fill-rule:evenodd; clip-rule:evenodd" xmlns:xlink="http://www.w3.org/1999/xlink">
<g><path style="opacity:1" fill="#bdbdbd" d="M 148.5,38.5 C 147.426,40.284 145.76,41.4506 143.5,42C 113,53.5 82.5,65 52,76.5C 51.2352,76.4301 50.7352,76.0967 50.5,75.5C 70.4647,44.0221 99.1314,30.5221 136.5,35C 140.795,35.569 144.795,36.7356 148.5,38.5 Z"/></g>
<g><path style="opacity:1" fill="#c6c6c6" d="M 148.5,38.5 C 165.649,43.8922 179.316,53.8922 189.5,68.5C 189.423,69.7498 188.756,70.5831 187.5,71C 138.255,89.7913 88.9219,108.291 39.5,126.5C 37.4287,108.184 41.0954,91.1841 50.5,75.5C 50.7352,76.0967 51.2352,76.4301 52,76.5C 82.5,65 113,53.5 143.5,42C 145.76,41.4506 147.426,40.284 148.5,38.5 Z"/></g>
<g><path style="opacity:1" fill="#757575" d="M 205.5,114.5 C 159.672,141.443 110.672,160.11 58.5,170.5C 43.1111,174.448 27.7777,174.282 12.5,170C 9.50921,167.692 7.50921,164.692 6.5,161C 7.73867,156.356 9.90533,152.189 13,148.5C 20.534,140.45 29.034,133.784 38.5,128.5C 40.7602,131.537 41.4269,134.87 40.5,138.5C 38.9094,140.681 37.5761,143.014 36.5,145.5C 37.1505,148.004 38.8171,149.337 41.5,149.5C 42.7933,150.158 44.2933,150.492 46,150.5C 99.7848,143.018 149.618,124.851 195.5,96C 197.907,93.8169 200.24,91.6503 202.5,89.5C 208.348,82.2618 206.348,78.5951 196.5,78.5C 194.507,75.5051 192.507,72.5051 190.5,69.5C 202.378,67.5278 214.378,67.0278 226.5,68C 240.63,71.3985 243.463,78.8985 235,90.5C 226.163,99.8488 216.329,107.849 205.5,114.5 Z M 40.5,138.5 C 42.6241,141.665 44.2908,145.165 45.5,149C 44.2068,149.49 42.8734,149.657 41.5,149.5C 38.8171,149.337 37.1505,148.004 36.5,145.5C 37.5761,143.014 38.9094,140.681 40.5,138.5 Z"/></g>
<g><path style="opacity:1" fill="#d8d8d8" d="M 189.5,68.5 C 190.167,68.5 190.5,68.8333 190.5,69.5C 192.507,72.5051 194.507,75.5051 196.5,78.5C 197.774,82.7272 199.774,86.3939 202.5,89.5C 200.24,91.6503 197.907,93.8169 195.5,96C 149.618,124.851 99.7848,143.018 46,150.5C 44.2933,150.492 42.7933,150.158 41.5,149.5C 42.8734,149.657 44.2068,149.49 45.5,149C 44.2908,145.165 42.6241,141.665 40.5,138.5C 41.4269,134.87 40.7602,131.537 38.5,128.5C 38.8333,127.833 39.1667,127.167 39.5,126.5C 88.9219,108.291 138.255,89.7913 187.5,71C 188.756,70.5831 189.423,69.7498 189.5,68.5 Z"/></g>
<g><path style="opacity:1" fill="#b2b2b2" d="M 205.5,114.5 C 206.3,125.365 204.633,135.698 200.5,145.5C 200.38,144.414 199.713,143.747 198.5,143.5C 159.729,157.719 121.062,172.219 82.5,187C 81.244,187.417 80.5774,188.25 80.5,189.5C 71.9104,184.574 64.5771,178.241 58.5,170.5C 110.672,160.11 159.672,141.443 205.5,114.5 Z"/></g>
<g><path style="opacity:1" fill="#a7a6a7" d="M 200.5,145.5 C 196.674,157.166 190.341,167.166 181.5,175.5C 180.399,174.402 179.066,174.235 177.5,175C 156.167,183 134.833,191 113.5,199C 120.158,199.5 126.825,199.666 133.5,199.5C 114.8,202.325 97.133,198.992 80.5,189.5C 80.5774,188.25 81.244,187.417 82.5,187C 121.062,172.219 159.729,157.719 198.5,143.5C 199.713,143.747 200.38,144.414 200.5,145.5 Z"/></g>
<g><path style="opacity:1" fill="#959595" d="M 181.5,175.5 C 168.539,189.314 152.539,197.314 133.5,199.5C 126.825,199.666 120.158,199.5 113.5,199C 134.833,191 156.167,183 177.5,175C 179.066,174.235 180.399,174.402 181.5,175.5 Z"/></g>
</svg>
