<?xml version="1.0" encoding="UTF-8"?>
<!DOCTYPE svg PUBLIC "-//W3C//DTD SVG 1.1//EN" "http://www.w3.org/Graphics/SVG/1.1/DTD/svg11.dtd">
<svg xmlns="http://www.w3.org/2000/svg" version="1.1" width="483px" height="483px" style="shape-rendering:geometricPrecision; text-rendering:geometricPrecision; image-rendering:optimizeQuality; fill-rule:evenodd; clip-rule:evenodd" xmlns:xlink="http://www.w3.org/1999/xlink">
<g><path style="opacity:1" fill="#79aed0" d="M 293.5,75.5 C 226.736,101.309 160.069,127.309 93.5,153.5C 117.799,108.564 155.465,80.3971 206.5,69C 236.236,63.084 265.236,65.2507 293.5,75.5 Z"/></g>
<g><path style="opacity:1" fill="#84bade" d="M 293.5,75.5 C 327.506,87.5261 354.839,108.193 375.5,137.5C 375.5,137.833 375.5,138.167 375.5,138.5C 280.085,174.695 184.752,211.195 89.5,248C 83.816,250.046 78.4827,252.546 73.5,255.5C 68.7354,219.322 75.4021,185.322 93.5,153.5C 160.069,127.309 226.736,101.309 293.5,75.5 Z"/></g>
<g><path style="opacity:1" fill="#ecc316" d="M 405.5,229.5 C 404.833,229.5 404.5,229.833 404.5,230.5C 403.833,230.5 403.5,230.833 403.5,231.5C 403.167,231.5 402.833,231.5 402.5,231.5C 401.833,231.5 401.5,231.833 401.5,232.5C 400.508,232.328 399.842,232.662 399.5,233.5C 398.833,233.5 398.5,233.833 398.5,234.5C 398.167,234.5 397.833,234.5 397.5,234.5C 396.833,234.5 396.5,234.833 396.5,235.5C 395.508,235.328 394.842,235.662 394.5,236.5C 393.833,236.5 393.5,236.833 393.5,237.5C 391.216,237.975 389.216,238.975 387.5,240.5C 386.833,240.5 386.5,240.833 386.5,241.5C 380.702,244.233 375.035,247.233 369.5,250.5C 368.833,250.5 368.5,250.833 368.5,251.5C 365.331,252.917 362.331,254.583 359.5,256.5C 359.167,256.5 358.833,256.5 358.5,256.5C 357.833,256.5 357.5,256.833 357.5,257.5C 356.833,257.5 356.5,257.833 356.5,258.5C 356.167,258.5 355.833,258.5 355.5,258.5C 354.833,258.5 354.5,258.833 354.5,259.5C 348.708,261.896 343.041,264.563 337.5,267.5C 336.833,267.5 336.5,267.833 336.5,268.5C 325.377,273.228 314.377,278.228 303.5,283.5C 302.833,283.5 302.5,283.833 302.5,284.5C 300.297,284.604 298.297,285.27 296.5,286.5C 295.833,286.5 295.5,286.833 295.5,287.5C 293.297,287.604 291.297,288.27 289.5,289.5C 288.833,289.5 288.5,289.833 288.5,290.5C 282.064,292.551 275.731,294.885 269.5,297.5C 268.833,297.5 268.5,297.833 268.5,298.5C 267.209,298.263 266.209,298.596 265.5,299.5C 265.167,299.5 264.833,299.5 264.5,299.5C 262.085,300.305 259.751,301.305 257.5,302.5C 257.167,302.5 256.833,302.5 256.5,302.5C 251.5,304.5 246.5,306.5 241.5,308.5C 240.833,308.5 240.5,308.833 240.5,309.5C 239.833,309.5 239.167,309.5 238.5,309.5C 237.833,309.5 237.5,309.833 237.5,310.5C 228.028,313.102 218.695,316.102 209.5,319.5C 209.167,319.5 208.833,319.5 208.5,319.5C 204.685,321.409 200.685,322.742 196.5,323.5C 195.833,323.5 195.5,323.833 195.5,324.5C 192.37,324.7 189.37,325.366 186.5,326.5C 185.833,326.5 185.5,326.833 185.5,327.5C 183.435,327.517 181.435,327.85 179.5,328.5C 178.833,328.5 178.5,328.833 178.5,329.5C 171.392,330.694 164.392,332.36 157.5,334.5C 157.167,334.5 156.833,334.5 156.5,334.5C 155.609,335.11 154.609,335.443 153.5,335.5C 153.167,335.5 152.833,335.5 152.5,335.5C 146.913,337.085 141.247,338.418 135.5,339.5C 134.833,339.5 134.5,339.833 134.5,340.5C 129.784,340.846 125.117,341.513 120.5,342.5C 120.167,342.5 119.833,342.5 119.5,342.5C 118.609,343.11 117.609,343.443 116.5,343.5C 115.5,343.5 114.5,343.5 113.5,343.5C 112.833,343.833 112.167,344.167 111.5,344.5C 88.3529,348.831 65.0196,350.331 41.5,349C 6.47223,344.451 -0.694435,327.951 20,299.5C 36.0235,282.615 53.8568,268.281 73.5,256.5C 73.2479,261.988 73.9145,267.322 75.5,272.5C 75.3284,273.492 75.6618,274.158 76.5,274.5C 76.5,275.167 76.5,275.833 76.5,276.5C 58.8637,295.895 63.197,304.561 89.5,302.5C 92.8333,302.5 96.1667,302.5 99.5,302.5C 100.791,302.737 101.791,302.404 102.5,301.5C 104.167,301.5 105.833,301.5 107.5,301.5C 108.791,301.737 109.791,301.404 110.5,300.5C 112.167,300.5 113.833,300.5 115.5,300.5C 116.492,300.672 117.158,300.338 117.5,299.5C 118.5,299.5 119.5,299.5 120.5,299.5C 121.167,299.5 121.5,299.167 121.5,298.5C 122.5,298.5 123.5,298.5 124.5,298.5C 125.492,298.672 126.158,298.338 126.5,297.5C 127.833,297.5 129.167,297.5 130.5,297.5C 131.492,297.672 132.158,297.338 132.5,296.5C 133.167,296.5 133.833,296.5 134.5,296.5C 135.492,296.672 136.158,296.338 136.5,295.5C 137.5,295.5 138.5,295.5 139.5,295.5C 140.167,295.5 140.5,295.167 140.5,294.5C 141.5,294.5 142.5,294.5 143.5,294.5C 144.492,294.672 145.158,294.338 145.5,293.5C 146.167,293.5 146.833,293.5 147.5,293.5C 148.492,293.672 149.158,293.338 149.5,292.5C 150.5,292.5 151.5,292.5 152.5,292.5C 153.167,292.5 153.5,292.167 153.5,291.5C 154.167,291.5 154.833,291.5 155.5,291.5C 156.492,291.672 157.158,291.338 157.5,290.5C 158.167,290.5 158.833,290.5 159.5,290.5C 160.492,290.672 161.158,290.338 161.5,289.5C 162.167,289.5 162.833,289.5 163.5,289.5C 164.492,289.672 165.158,289.338 165.5,288.5C 166.167,288.5 166.833,288.5 167.5,288.5C 168.167,288.5 168.5,288.167 168.5,287.5C 169.167,287.5 169.833,287.5 170.5,287.5C 171.167,287.5 171.5,287.167 171.5,286.5C 172.167,286.5 172.833,286.5 173.5,286.5C 174.492,286.672 175.158,286.338 175.5,285.5C 175.833,285.5 176.167,285.5 176.5,285.5C 177.492,285.672 178.158,285.338 178.5,284.5C 178.833,284.5 179.167,284.5 179.5,284.5C 180.492,284.672 181.158,284.338 181.5,283.5C 182.167,283.5 182.833,283.5 183.5,283.5C 184.167,283.5 184.5,283.167 184.5,282.5C 185.167,282.5 185.833,282.5 186.5,282.5C 187.167,282.5 187.5,282.167 187.5,281.5C 188.167,281.5 188.833,281.5 189.5,281.5C 190.167,281.5 190.5,281.167 190.5,280.5C 191.167,280.5 191.833,280.5 192.5,280.5C 193.492,280.672 194.158,280.338 194.5,279.5C 194.833,279.5 195.167,279.5 195.5,279.5C 196.492,279.672 197.158,279.338 197.5,278.5C 197.833,278.5 198.167,278.5 198.5,278.5C 199.492,278.672 200.158,278.338 200.5,277.5C 200.833,277.5 201.167,277.5 201.5,277.5C 202.492,277.672 203.158,277.338 203.5,276.5C 203.833,276.5 204.167,276.5 204.5,276.5C 205.492,276.672 206.158,276.338 206.5,275.5C 206.833,275.5 207.167,275.5 207.5,275.5C 208.492,275.672 209.158,275.338 209.5,274.5C 209.833,274.5 210.167,274.5 210.5,274.5C 211.492,274.672 212.158,274.338 212.5,273.5C 212.833,273.5 213.167,273.5 213.5,273.5C 214.492,273.672 215.158,273.338 215.5,272.5C 215.833,272.5 216.167,272.5 216.5,272.5C 217.167,272.5 217.5,272.167 217.5,271.5C 218.167,271.5 218.833,271.5 219.5,271.5C 220.167,271.5 220.5,271.167 220.5,270.5C 220.833,270.5 221.167,270.5 221.5,270.5C 222.167,270.5 222.5,270.167 222.5,269.5C 223.167,269.5 223.833,269.5 224.5,269.5C 225.167,269.5 225.5,269.167 225.5,268.5C 226.167,268.5 226.833,268.5 227.5,268.5C 228.167,268.5 228.5,268.167 228.5,267.5C 228.833,267.5 229.167,267.5 229.5,267.5C 230.492,267.672 231.158,267.338 231.5,266.5C 231.833,266.5 232.167,266.5 232.5,266.5C 233.167,266.5 233.5,266.167 233.5,265.5C 234.167,265.5 234.833,265.5 235.5,265.5C 236.167,265.5 236.5,265.167 236.5,264.5C 237.167,264.5 237.833,264.5 238.5,264.5C 239.167,264.5 239.5,264.167 239.5,263.5C 239.833,263.5 240.167,263.5 240.5,263.5C 241.492,263.672 242.158,263.338 242.5,262.5C 242.833,262.5 243.167,262.5 243.5,262.5C 244.492,262.672 245.158,262.338 245.5,261.5C 245.833,261.5 246.167,261.5 246.5,261.5C 247.167,261.5 247.5,261.167 247.5,260.5C 248.167,260.5 248.833,260.5 249.5,260.5C 250.167,260.5 250.5,260.167 250.5,259.5C 250.833,259.5 251.167,259.5 251.5,259.5C 252.167,259.5 252.5,259.167 252.5,258.5C 253.167,258.5 253.833,258.5 254.5,258.5C 255.167,258.5 255.5,258.167 255.5,257.5C 255.833,257.5 256.167,257.5 256.5,257.5C 257.167,257.5 257.5,257.167 257.5,256.5C 258.167,256.5 258.833,256.5 259.5,256.5C 260.167,256.5 260.5,256.167 260.5,255.5C 260.833,255.5 261.167,255.5 261.5,255.5C 262.167,255.5 262.5,255.167 262.5,254.5C 265.443,254.02 268.11,253.02 270.5,251.5C 271.167,251.5 271.5,251.167 271.5,250.5C 272.167,250.5 272.833,250.5 273.5,250.5C 274.167,250.5 274.5,250.167 274.5,249.5C 274.833,249.5 275.167,249.5 275.5,249.5C 276.167,249.5 276.5,249.167 276.5,248.5C 276.833,248.5 277.167,248.5 277.5,248.5C 278.167,248.5 278.5,248.167 278.5,247.5C 279.167,247.5 279.833,247.5 280.5,247.5C 281.167,247.5 281.5,247.167 281.5,246.5C 281.833,246.5 282.167,246.5 282.5,246.5C 283.167,246.5 283.5,246.167 283.5,245.5C 283.833,245.5 284.167,245.5 284.5,245.5C 285.167,245.5 285.5,245.167 285.5,244.5C 285.833,244.5 286.167,244.5 286.5,244.5C 287.492,244.672 288.158,244.338 288.5,243.5C 288.833,243.5 289.167,243.5 289.5,243.5C 290.167,243.5 290.5,243.167 290.5,242.5C 290.833,242.5 291.167,242.5 291.5,242.5C 292.167,242.5 292.5,242.167 292.5,241.5C 292.833,241.5 293.167,241.5 293.5,241.5C 294.167,241.5 294.5,241.167 294.5,240.5C 295.167,240.5 295.833,240.5 296.5,240.5C 297.167,240.5 297.5,240.167 297.5,239.5C 297.833,239.5 298.167,239.5 298.5,239.5C 299.167,239.5 299.5,239.167 299.5,238.5C 299.833,238.5 300.167,238.5 300.5,238.5C 301.167,238.5 301.5,238.167 301.5,237.5C 301.833,237.5 302.167,237.5 302.5,237.5C 303.167,237.5 303.5,237.167 303.5,236.5C 303.833,236.5 304.167,236.5 304.5,236.5C 305.167,236.5 305.5,236.167 305.5,235.5C 305.833,235.5 306.167,235.5 306.5,235.5C 307.492,235.672 308.158,235.338 308.5,234.5C 308.833,234.5 309.167,234.5 309.5,234.5C 310.167,234.5 310.5,234.167 310.5,233.5C 310.833,233.5 311.167,233.5 311.5,233.5C 312.167,233.5 312.5,233.167 312.5,232.5C 314.819,232.008 316.819,231.008 318.5,229.5C 319.167,229.5 319.5,229.167 319.5,228.5C 319.833,228.5 320.167,228.5 320.5,228.5C 321.167,228.5 321.5,228.167 321.5,227.5C 321.833,227.5 322.167,227.5 322.5,227.5C 323.167,227.5 323.5,227.167 323.5,226.5C 323.833,226.5 324.167,226.5 324.5,226.5C 325.167,226.5 325.5,226.167 325.5,225.5C 325.833,225.5 326.167,225.5 326.5,225.5C 327.167,225.5 327.5,225.167 327.5,224.5C 327.833,224.5 328.167,224.5 328.5,224.5C 329.167,224.5 329.5,224.167 329.5,223.5C 329.833,223.5 330.167,223.5 330.5,223.5C 331.167,223.5 331.5,223.167 331.5,222.5C 331.833,222.5 332.167,222.5 332.5,222.5C 333.167,222.5 333.5,222.167 333.5,221.5C 333.833,221.5 334.167,221.5 334.5,221.5C 335.167,221.5 335.5,221.167 335.5,220.5C 335.833,220.5 336.167,220.5 336.5,220.5C 337.167,220.5 337.5,220.167 337.5,219.5C 337.833,219.5 338.167,219.5 338.5,219.5C 339.167,219.5 339.5,219.167 339.5,218.5C 339.833,218.5 340.167,218.5 340.5,218.5C 341.167,218.5 341.5,218.167 341.5,217.5C 341.833,217.5 342.167,217.5 342.5,217.5C 343.167,217.5 343.5,217.167 343.5,216.5C 343.833,216.5 344.167,216.5 344.5,216.5C 345.167,216.5 345.5,216.167 345.5,215.5C 345.833,215.5 346.167,215.5 346.5,215.5C 347.167,215.5 347.5,215.167 347.5,214.5C 347.833,214.5 348.167,214.5 348.5,214.5C 349.167,214.5 349.5,214.167 349.5,213.5C 350.167,213.5 350.5,213.167 350.5,212.5C 350.833,212.5 351.167,212.5 351.5,212.5C 352.167,212.5 352.5,212.167 352.5,211.5C 352.833,211.5 353.167,211.5 353.5,211.5C 354.167,211.5 354.5,211.167 354.5,210.5C 354.833,210.5 355.167,210.5 355.5,210.5C 356.167,210.5 356.5,210.167 356.5,209.5C 356.833,209.5 357.167,209.5 357.5,209.5C 358.167,209.5 358.5,209.167 358.5,208.5C 362.01,207.225 365.01,205.225 367.5,202.5C 368.167,202.5 368.5,202.167 368.5,201.5C 368.833,201.5 369.167,201.5 369.5,201.5C 370.167,201.5 370.5,201.167 370.5,200.5C 371.167,200.5 371.5,200.167 371.5,199.5C 371.833,199.5 372.167,199.5 372.5,199.5C 373.167,199.5 373.5,199.167 373.5,198.5C 374.492,198.672 375.158,198.338 375.5,197.5C 376.167,197.5 376.5,197.167 376.5,196.5C 377.492,196.672 378.158,196.338 378.5,195.5C 379.167,195.5 379.5,195.167 379.5,194.5C 380.167,194.5 380.5,194.167 380.5,193.5C 380.833,193.5 381.167,193.5 381.5,193.5C 382.167,193.5 382.5,193.167 382.5,192.5C 383.167,192.5 383.5,192.167 383.5,191.5C 383.833,191.5 384.167,191.5 384.5,191.5C 385.167,191.5 385.5,191.167 385.5,190.5C 386.167,190.5 386.5,190.167 386.5,189.5C 387.167,189.167 387.833,188.833 388.5,188.5C 389.167,188.5 389.5,188.167 389.5,187.5C 390.167,187.5 390.5,187.167 390.5,186.5C 391.167,186.5 391.5,186.167 391.5,185.5C 392.5,184.833 393.5,184.167 394.5,183.5C 395.167,183.5 395.5,183.167 395.5,182.5C 396.167,182.5 396.5,182.167 396.5,181.5C 400.544,178.457 403.877,174.791 406.5,170.5C 408.534,168.345 408.867,166.012 407.5,163.5C 406.416,161.185 404.749,159.352 402.5,158C 397.318,156.197 391.984,155.364 386.5,155.5C 385.833,155.5 385.5,155.167 385.5,154.5C 385.5,153.833 385.167,153.5 384.5,153.5C 384.5,153.167 384.5,152.833 384.5,152.5C 384.5,151.833 384.167,151.5 383.5,151.5C 383.5,151.167 383.5,150.833 383.5,150.5C 383.5,149.833 383.167,149.5 382.5,149.5C 382.167,148.833 381.833,148.167 381.5,147.5C 381.5,146.833 381.167,146.5 380.5,146.5C 380.5,146.167 380.5,145.833 380.5,145.5C 380.5,144.833 380.167,144.5 379.5,144.5C 379.5,143.833 379.167,143.5 378.5,143.5C 378.5,143.167 378.5,142.833 378.5,142.5C 378.5,141.833 378.167,141.5 377.5,141.5C 377.167,140.833 376.833,140.167 376.5,139.5C 376.5,138.833 376.167,138.5 375.5,138.5C 375.5,138.167 375.5,137.833 375.5,137.5C 399.717,133.4 424.05,132.566 448.5,135C 457.465,136.065 464.965,139.899 471,146.5C 475.296,152.952 475.629,159.618 472,166.5C 469.033,172.447 465.7,178.114 462,183.5C 444.879,201.116 426.046,216.45 405.5,229.5 Z M 76.5,276.5 C 78.897,285.022 81.897,293.356 85.5,301.5C 86.6888,302.429 88.0222,302.762 89.5,302.5C 63.197,304.561 58.8637,295.895 76.5,276.5 Z"/></g>
<g><path style="opacity:1" fill="#8eccf3" d="M 375.5,138.5 C 376.167,138.5 376.5,138.833 376.5,139.5C 376.833,140.167 377.167,140.833 377.5,141.5C 378.167,141.5 378.5,141.833 378.5,142.5C 378.5,142.833 378.5,143.167 378.5,143.5C 379.167,143.5 379.5,143.833 379.5,144.5C 380.167,144.5 380.5,144.833 380.5,145.5C 380.5,145.833 380.5,146.167 380.5,146.5C 381.167,146.5 381.5,146.833 381.5,147.5C 381.833,148.167 382.167,148.833 382.5,149.5C 383.167,149.5 383.5,149.833 383.5,150.5C 383.5,150.833 383.5,151.167 383.5,151.5C 384.167,151.5 384.5,151.833 384.5,152.5C 384.5,152.833 384.5,153.167 384.5,153.5C 385.167,153.5 385.5,153.833 385.5,154.5C 385.5,155.167 385.833,155.5 386.5,155.5C 390.395,163.956 393.728,172.622 396.5,181.5C 395.833,181.5 395.5,181.833 395.5,182.5C 394.833,182.5 394.5,182.833 394.5,183.5C 393.5,184.167 392.5,184.833 391.5,185.5C 390.833,185.5 390.5,185.833 390.5,186.5C 389.833,186.5 389.5,186.833 389.5,187.5C 388.833,187.5 388.5,187.833 388.5,188.5C 387.833,188.833 387.167,189.167 386.5,189.5C 385.833,189.5 385.5,189.833 385.5,190.5C 384.833,190.5 384.5,190.833 384.5,191.5C 384.167,191.5 383.833,191.5 383.5,191.5C 382.833,191.5 382.5,191.833 382.5,192.5C 381.833,192.5 381.5,192.833 381.5,193.5C 381.167,193.5 380.833,193.5 380.5,193.5C 379.833,193.5 379.5,193.833 379.5,194.5C 378.833,194.5 378.5,194.833 378.5,195.5C 378.158,196.338 377.492,196.672 376.5,196.5C 375.833,196.5 375.5,196.833 375.5,197.5C 375.158,198.338 374.492,198.672 373.5,198.5C 372.833,198.5 372.5,198.833 372.5,199.5C 372.167,199.5 371.833,199.5 371.5,199.5C 370.833,199.5 370.5,199.833 370.5,200.5C 369.833,200.5 369.5,200.833 369.5,201.5C 369.167,201.5 368.833,201.5 368.5,201.5C 367.833,201.5 367.5,201.833 367.5,202.5C 365.01,205.225 362.01,207.225 358.5,208.5C 357.833,208.5 357.5,208.833 357.5,209.5C 357.167,209.5 356.833,209.5 356.5,209.5C 355.833,209.5 355.5,209.833 355.5,210.5C 355.167,210.5 354.833,210.5 354.5,210.5C 353.833,210.5 353.5,210.833 353.5,211.5C 353.167,211.5 352.833,211.5 352.5,211.5C 351.833,211.5 351.5,211.833 351.5,212.5C 351.167,212.5 350.833,212.5 350.5,212.5C 349.833,212.5 349.5,212.833 349.5,213.5C 348.833,213.5 348.5,213.833 348.5,214.5C 348.167,214.5 347.833,214.5 347.5,214.5C 346.833,214.5 346.5,214.833 346.5,215.5C 346.167,215.5 345.833,215.5 345.5,215.5C 344.833,215.5 344.5,215.833 344.5,216.5C 344.167,216.5 343.833,216.5 343.5,216.5C 342.833,216.5 342.5,216.833 342.5,217.5C 342.167,217.5 341.833,217.5 341.5,217.5C 340.833,217.5 340.5,217.833 340.5,218.5C 340.167,218.5 339.833,218.5 339.5,218.5C 338.833,218.5 338.5,218.833 338.5,219.5C 338.167,219.5 337.833,219.5 337.5,219.5C 336.833,219.5 336.5,219.833 336.5,220.5C 336.167,220.5 335.833,220.5 335.5,220.5C 334.833,220.5 334.5,220.833 334.5,221.5C 334.167,221.5 333.833,221.5 333.5,221.5C 332.833,221.5 332.5,221.833 332.5,222.5C 332.167,222.5 331.833,222.5 331.5,222.5C 330.833,222.5 330.5,222.833 330.5,223.5C 330.167,223.5 329.833,223.5 329.5,223.5C 328.833,223.5 328.5,223.833 328.5,224.5C 328.167,224.5 327.833,224.5 327.5,224.5C 326.833,224.5 326.5,224.833 326.5,225.5C 326.167,225.5 325.833,225.5 325.5,225.5C 324.833,225.5 324.5,225.833 324.5,226.5C 324.167,226.5 323.833,226.5 323.5,226.5C 322.833,226.5 322.5,226.833 322.5,227.5C 322.167,227.5 321.833,227.5 321.5,227.5C 320.833,227.5 320.5,227.833 320.5,228.5C 320.167,228.5 319.833,228.5 319.5,228.5C 318.833,228.5 318.5,228.833 318.5,229.5C 316.819,231.008 314.819,232.008 312.5,232.5C 311.833,232.5 311.5,232.833 311.5,233.5C 311.167,233.5 310.833,233.5 310.5,233.5C 309.833,233.5 309.5,233.833 309.5,234.5C 309.167,234.5 308.833,234.5 308.5,234.5C 307.508,234.328 306.842,234.662 306.5,235.5C 306.167,235.5 305.833,235.5 305.5,235.5C 304.833,235.5 304.5,235.833 304.5,236.5C 304.167,236.5 303.833,236.5 303.5,236.5C 302.833,236.5 302.5,236.833 302.5,237.5C 302.167,237.5 301.833,237.5 301.5,237.5C 300.833,237.5 300.5,237.833 300.5,238.5C 300.167,238.5 299.833,238.5 299.5,238.5C 298.833,238.5 298.5,238.833 298.5,239.5C 298.167,239.5 297.833,239.5 297.5,239.5C 296.833,239.5 296.5,239.833 296.5,240.5C 295.833,240.5 295.167,240.5 294.5,240.5C 293.833,240.5 293.5,240.833 293.5,241.5C 293.167,241.5 292.833,241.5 292.5,241.5C 291.833,241.5 291.5,241.833 291.5,242.5C 291.167,242.5 290.833,242.5 290.5,242.5C 289.833,242.5 289.5,242.833 289.5,243.5C 289.167,243.5 288.833,243.5 288.5,243.5C 287.508,243.328 286.842,243.662 286.5,244.5C 286.167,244.5 285.833,244.5 285.5,244.5C 284.833,244.5 284.5,244.833 284.5,245.5C 284.167,245.5 283.833,245.5 283.5,245.5C 282.833,245.5 282.5,245.833 282.5,246.5C 282.167,246.5 281.833,246.5 281.5,246.5C 280.833,246.5 280.5,246.833 280.5,247.5C 279.833,247.5 279.167,247.5 278.5,247.5C 277.833,247.5 277.5,247.833 277.5,248.5C 277.167,248.5 276.833,248.5 276.5,248.5C 275.833,248.5 275.5,248.833 275.5,249.5C 275.167,249.5 274.833,249.5 274.5,249.5C 273.833,249.5 273.5,249.833 273.5,250.5C 272.833,250.5 272.167,250.5 271.5,250.5C 270.833,250.5 270.5,250.833 270.5,251.5C 268.11,253.02 265.443,254.02 262.5,254.5C 261.833,254.5 261.5,254.833 261.5,255.5C 261.167,255.5 260.833,255.5 260.5,255.5C 259.833,255.5 259.5,255.833 259.5,256.5C 258.833,256.5 258.167,256.5 257.5,256.5C 256.833,256.5 256.5,256.833 256.5,257.5C 256.167,257.5 255.833,257.5 255.5,257.5C 254.833,257.5 254.5,257.833 254.5,258.5C 253.833,258.5 253.167,258.5 252.5,258.5C 251.833,258.5 251.5,258.833 251.5,259.5C 251.167,259.5 250.833,259.5 250.5,259.5C 249.833,259.5 249.5,259.833 249.5,260.5C 248.833,260.5 248.167,260.5 247.5,260.5C 246.833,260.5 246.5,260.833 246.5,261.5C 246.167,261.5 245.833,261.5 245.5,261.5C 244.508,261.328 243.842,261.662 243.5,262.5C 243.167,262.5 242.833,262.5 242.5,262.5C 241.508,262.328 240.842,262.662 240.5,263.5C 240.167,263.5 239.833,263.5 239.5,263.5C 238.833,263.5 238.5,263.833 238.5,264.5C 237.833,264.5 237.167,264.5 236.5,264.5C 235.833,264.5 235.5,264.833 235.5,265.5C 234.833,265.5 234.167,265.5 233.5,265.5C 232.833,265.5 232.5,265.833 232.5,266.5C 232.167,266.5 231.833,266.5 231.5,266.5C 230.508,266.328 229.842,266.662 229.5,267.5C 229.167,267.5 228.833,267.5 228.5,267.5C 227.833,267.5 227.5,267.833 227.5,268.5C 226.833,268.5 226.167,268.5 225.5,268.5C 224.833,268.5 224.5,268.833 224.5,269.5C 223.833,269.5 223.167,269.5 222.5,269.5C 221.833,269.5 221.5,269.833 221.5,270.5C 221.167,270.5 220.833,270.5 220.5,270.5C 219.833,270.5 219.5,270.833 219.5,271.5C 218.833,271.5 218.167,271.5 217.5,271.5C 216.833,271.5 216.5,271.833 216.5,272.5C 216.167,272.5 215.833,272.5 215.5,272.5C 214.508,272.328 213.842,272.662 213.5,273.5C 213.167,273.5 212.833,273.5 212.5,273.5C 211.508,273.328 210.842,273.662 210.5,274.5C 210.167,274.5 209.833,274.5 209.5,274.5C 208.508,274.328 207.842,274.662 207.5,275.5C 207.167,275.5 206.833,275.5 206.5,275.5C 205.508,275.328 204.842,275.662 204.5,276.5C 204.167,276.5 203.833,276.5 203.5,276.5C 202.508,276.328 201.842,276.662 201.5,277.5C 201.167,277.5 200.833,277.5 200.5,277.5C 199.508,277.328 198.842,277.662 198.5,278.5C 198.167,278.5 197.833,278.5 197.5,278.5C 196.508,278.328 195.842,278.662 195.5,279.5C 195.167,279.5 194.833,279.5 194.5,279.5C 193.508,279.328 192.842,279.662 192.5,280.5C 191.833,280.5 191.167,280.5 190.5,280.5C 189.833,280.5 189.5,280.833 189.5,281.5C 188.833,281.5 188.167,281.5 187.5,281.5C 186.833,281.5 186.5,281.833 186.5,282.5C 185.833,282.5 185.167,282.5 184.5,282.5C 183.833,282.5 183.5,282.833 183.5,283.5C 182.833,283.5 182.167,283.5 181.5,283.5C 180.508,283.328 179.842,283.662 179.5,284.5C 179.167,284.5 178.833,284.5 178.5,284.5C 177.508,284.328 176.842,284.662 176.5,285.5C 176.167,285.5 175.833,285.5 175.5,285.5C 174.508,285.328 173.842,285.662 173.5,286.5C 172.833,286.5 172.167,286.5 171.5,286.5C 170.833,286.5 170.5,286.833 170.5,287.5C 169.833,287.5 169.167,287.5 168.5,287.5C 167.833,287.5 167.5,287.833 167.5,288.5C 166.833,288.5 166.167,288.5 165.5,288.5C 164.508,288.328 163.842,288.662 163.5,289.5C 162.833,289.5 162.167,289.5 161.5,289.5C 160.508,289.328 159.842,289.662 159.5,290.5C 158.833,290.5 158.167,290.5 157.5,290.5C 156.508,290.328 155.842,290.662 155.5,291.5C 154.833,291.5 154.167,291.5 153.5,291.5C 152.833,291.5 152.5,291.833 152.5,292.5C 151.5,292.5 150.5,292.5 149.5,292.5C 148.508,292.328 147.842,292.662 147.5,293.5C 146.833,293.5 146.167,293.5 145.5,293.5C 144.508,293.328 143.842,293.662 143.5,294.5C 142.5,294.5 141.5,294.5 140.5,294.5C 139.833,294.5 139.5,294.833 139.5,295.5C 138.5,295.5 137.5,295.5 136.5,295.5C 135.508,295.328 134.842,295.662 134.5,296.5C 133.833,296.5 133.167,296.5 132.5,296.5C 131.508,296.328 130.842,296.662 130.5,297.5C 129.167,297.5 127.833,297.5 126.5,297.5C 125.508,297.328 124.842,297.662 124.5,298.5C 123.5,298.5 122.5,298.5 121.5,298.5C 120.833,298.5 120.5,298.833 120.5,299.5C 119.5,299.5 118.5,299.5 117.5,299.5C 116.508,299.328 115.842,299.662 115.5,300.5C 113.833,300.5 112.167,300.5 110.5,300.5C 109.209,300.263 108.209,300.596 107.5,301.5C 105.833,301.5 104.167,301.5 102.5,301.5C 101.209,301.263 100.209,301.596 99.5,302.5C 96.1667,302.5 92.8333,302.5 89.5,302.5C 88.0222,302.762 86.6888,302.429 85.5,301.5C 81.897,293.356 78.897,285.022 76.5,276.5C 76.5,275.833 76.5,275.167 76.5,274.5C 76.6716,273.508 76.3382,272.842 75.5,272.5C 73.9145,267.322 73.2479,261.988 73.5,256.5C 73.5,256.167 73.5,255.833 73.5,255.5C 78.4827,252.546 83.816,250.046 89.5,248C 184.752,211.195 280.085,174.695 375.5,138.5 Z"/></g>
<g><path style="opacity:1" fill="#a88e35" d="M 407.5,163.5 C 408.867,166.012 408.534,168.345 406.5,170.5C 406.062,170.565 405.728,170.399 405.5,170C 406.669,167.993 407.335,165.827 407.5,163.5 Z"/></g>
<g><path style="opacity:1" fill="#76a8c6" d="M 405.5,229.5 C 406.595,249.412 403.928,268.746 397.5,287.5C 387.003,290.41 376.67,293.91 366.5,298C 299.127,324.025 231.793,350.025 164.5,376C 160.633,377.558 156.966,379.392 153.5,381.5C 136.999,371.999 122.999,359.665 111.5,344.5C 112.167,344.167 112.833,343.833 113.5,343.5C 114.5,344.833 115.5,344.833 116.5,343.5C 117.609,343.443 118.609,343.11 119.5,342.5C 119.833,343.833 120.167,343.833 120.5,342.5C 125.117,341.513 129.784,340.846 134.5,340.5C 135.167,340.5 135.5,340.167 135.5,339.5C 141.247,338.418 146.913,337.085 152.5,335.5C 152.833,336.833 153.167,336.833 153.5,335.5C 154.609,335.443 155.609,335.11 156.5,334.5C 156.833,335.833 157.167,335.833 157.5,334.5C 164.392,332.36 171.392,330.694 178.5,329.5C 179.167,329.5 179.5,329.167 179.5,328.5C 181.435,327.85 183.435,327.517 185.5,327.5C 186.167,327.5 186.5,327.167 186.5,326.5C 189.37,325.366 192.37,324.7 195.5,324.5C 196.167,324.5 196.5,324.167 196.5,323.5C 200.685,322.742 204.685,321.409 208.5,319.5C 208.833,320.833 209.167,320.833 209.5,319.5C 218.695,316.102 228.028,313.102 237.5,310.5C 238.167,310.5 238.5,310.167 238.5,309.5C 239.167,309.5 239.833,309.5 240.5,309.5C 241.167,309.5 241.5,309.167 241.5,308.5C 246.5,306.5 251.5,304.5 256.5,302.5C 256.833,303.833 257.167,303.833 257.5,302.5C 259.751,301.305 262.085,300.305 264.5,299.5C 264.833,300.833 265.167,300.833 265.5,299.5C 266.209,298.596 267.209,298.263 268.5,298.5C 269.167,298.5 269.5,298.167 269.5,297.5C 275.731,294.885 282.064,292.551 288.5,290.5C 289.167,290.5 289.5,290.167 289.5,289.5C 291.297,288.27 293.297,287.604 295.5,287.5C 296.167,287.5 296.5,287.167 296.5,286.5C 298.297,285.27 300.297,284.604 302.5,284.5C 303.167,284.5 303.5,284.167 303.5,283.5C 314.377,278.228 325.377,273.228 336.5,268.5C 337.167,268.5 337.5,268.167 337.5,267.5C 343.041,264.563 348.708,261.896 354.5,259.5C 355.167,259.5 355.5,259.167 355.5,258.5C 355.833,258.5 356.167,258.5 356.5,258.5C 357.167,258.5 357.5,258.167 357.5,257.5C 357.5,256.833 357.833,256.5 358.5,256.5C 358.833,257.833 359.167,257.833 359.5,256.5C 362.331,254.583 365.331,252.917 368.5,251.5C 369.167,251.5 369.5,251.167 369.5,250.5C 375.035,247.233 380.702,244.233 386.5,241.5C 387.167,241.5 387.5,241.167 387.5,240.5C 389.216,238.975 391.216,237.975 393.5,237.5C 394.167,237.5 394.5,237.167 394.5,236.5C 394.842,235.662 395.508,235.328 396.5,235.5C 397.167,235.5 397.5,235.167 397.5,234.5C 397.833,234.5 398.167,234.5 398.5,234.5C 399.167,234.5 399.5,234.167 399.5,233.5C 399.842,232.662 400.508,232.328 401.5,232.5C 402.167,232.5 402.5,232.167 402.5,231.5C 402.833,231.5 403.167,231.5 403.5,231.5C 404.167,231.5 404.5,231.167 404.5,230.5C 404.5,229.833 404.833,229.5 405.5,229.5 Z"/></g>
<g><path style="opacity:1" fill="#6d9bb9" d="M 397.5,287.5 C 390.1,310.984 378.1,331.65 361.5,349.5C 313.934,367.462 266.601,385.796 219.5,404.5C 195.757,401.587 173.757,393.92 153.5,381.5C 156.966,379.392 160.633,377.558 164.5,376C 231.793,350.025 299.127,324.025 366.5,298C 376.67,293.91 387.003,290.41 397.5,287.5 Z"/></g>
<g><path style="opacity:1" fill="#5e87a3" d="M 361.5,349.5 C 360.71,350.794 359.71,351.961 358.5,353C 358.833,353.333 359.167,353.667 359.5,354C 320.776,392.301 274.11,409.135 219.5,404.5C 266.601,385.796 313.934,367.462 361.5,349.5 Z"/></g>
</svg>
